<svg width="40" height="41" viewBox="0 0 40 41" fill="none" xmlns="http://www.w3.org/2000/svg">
<path fill-rule="evenodd" clip-rule="evenodd" d="M28.912 21.5602C26.6807 22.4548 24.2723 23.0066 21.7532 23.1496C21.3188 23.1742 20.8811 23.1867 20.4404 23.1867C19.9997 23.1867 19.562 23.1742 19.1276 23.1496C16.608 23.0066 14.199 22.4546 11.9673 21.5596C7.28395 19.6814 3.38146 16.2927 0.875977 12.0035C4.78121 5.31819 12.0804 0.820312 20.4404 0.820312C28.8005 0.820312 36.0996 5.31819 40.0049 12.0035C37.4991 16.2931 33.596 19.6821 28.912 21.5602Z" fill="white"/>
<path d="M11.9668 23.3006C11.4273 23.0842 10.8981 22.8478 10.3803 22.5923C8.69723 23.7664 7.27446 25.2286 6.20312 26.8969C8.02412 29.7326 10.8604 31.973 14.2643 33.2147C15.8863 33.8064 17.6371 34.1714 19.4684 34.2659H21.3767C23.2076 34.1714 26.4255 35.9676 21.7528 40.5003C25.1572 39.2586 32.8208 29.7329 34.642 26.8969C33.5738 25.2334 32.156 23.7747 30.4793 22.6023C29.9674 22.8543 29.4445 23.0875 28.9115 23.3012C26.6803 24.1959 24.2718 24.7477 21.7528 24.8906C21.3183 24.9153 20.8806 24.9278 20.44 24.9278C19.9993 24.9278 19.5616 24.9153 19.1271 24.8906C16.6075 24.7476 14.1985 24.1956 11.9668 23.3006Z" fill="white"/>
<rect x="11.0068" y="9.14258" width="18.9093" height="6.68764" rx="3.34382" fill="black"/>
<ellipse cx="25.6756" cy="12.4492" rx="1.23811" ry="1.22607" fill="white"/>
<ellipse cx="20.4227" cy="28.9458" rx="1.23811" ry="1.22607" fill="black"/>
<ellipse cx="15.4705" cy="12.4492" rx="1.23811" ry="1.22607" fill="white"/>
<ellipse cx="15.4705" cy="28.9458" rx="1.23811" ry="1.22607" fill="black"/>
<ellipse cx="25.3758" cy="28.9458" rx="1.23811" ry="1.22607" fill="black"/>
</svg>
